<mxfile host="Electron" agent="Mozilla/5.0 (Windows NT 10.0; Win64; x64) AppleWebKit/537.36 (KHTML, like Gecko) draw.io/27.0.9 Chrome/134.0.6998.205 Electron/35.4.0 Safari/537.36" version="27.0.9">
  <diagram name="PÃ¡gina-1" id="lXpg1AzdWcVcoVZymVy2">
    <mxGraphModel dx="1394" dy="818" grid="1" gridSize="10" guides="1" tooltips="1" connect="1" arrows="1" fold="1" page="1" pageScale="1" pageWidth="827" pageHeight="1169" math="0" shadow="0">
      <root>
        <mxCell id="0" />
        <mxCell id="1" parent="0" />
        <mxCell id="AQrhuAA2heNJIMbW466x-3" value="sucursal" style="whiteSpace=wrap;html=1;align=center;fillColor=#f0a30a;strokeColor=#BD7000;fontColor=#000000;" parent="1" vertex="1">
          <mxGeometry x="50" y="460" width="100" height="40" as="geometry" />
        </mxCell>
        <mxCell id="AQrhuAA2heNJIMbW466x-4" value="" style="endArrow=none;html=1;rounded=0;exitX=0.75;exitY=0;exitDx=0;exitDy=0;" parent="1" source="AQrhuAA2heNJIMbW466x-3" target="AQrhuAA2heNJIMbW466x-5" edge="1">
          <mxGeometry relative="1" as="geometry">
            <mxPoint x="150" y="480" as="sourcePoint" />
            <mxPoint x="210" y="480" as="targetPoint" />
          </mxGeometry>
        </mxCell>
        <mxCell id="AQrhuAA2heNJIMbW466x-5" value="&lt;u&gt;codigo&lt;/u&gt;" style="ellipse;whiteSpace=wrap;html=1;align=center;" parent="1" vertex="1">
          <mxGeometry x="100" y="410" width="50" height="30" as="geometry" />
        </mxCell>
        <mxCell id="AQrhuAA2heNJIMbW466x-6" value="" style="endArrow=none;html=1;rounded=0;exitX=0.25;exitY=0;exitDx=0;exitDy=0;" parent="1" source="AQrhuAA2heNJIMbW466x-3" target="AQrhuAA2heNJIMbW466x-7" edge="1">
          <mxGeometry relative="1" as="geometry">
            <mxPoint y="415" as="sourcePoint" />
            <mxPoint x="60" y="415" as="targetPoint" />
          </mxGeometry>
        </mxCell>
        <mxCell id="AQrhuAA2heNJIMbW466x-7" value="tlf" style="ellipse;whiteSpace=wrap;html=1;align=center;" parent="1" vertex="1">
          <mxGeometry x="50" y="400" width="50" height="30" as="geometry" />
        </mxCell>
        <mxCell id="AQrhuAA2heNJIMbW466x-9" value="" style="endArrow=none;html=1;rounded=0;exitX=0;exitY=0;exitDx=0;exitDy=0;" parent="1" source="AQrhuAA2heNJIMbW466x-3" target="AQrhuAA2heNJIMbW466x-10" edge="1">
          <mxGeometry relative="1" as="geometry">
            <mxPoint x="20" y="450" as="sourcePoint" />
            <mxPoint x="10" y="425" as="targetPoint" />
          </mxGeometry>
        </mxCell>
        <mxCell id="AQrhuAA2heNJIMbW466x-10" value="domicilio" style="ellipse;whiteSpace=wrap;html=1;align=center;" parent="1" vertex="1">
          <mxGeometry y="410" width="50" height="30" as="geometry" />
        </mxCell>
        <mxCell id="AQrhuAA2heNJIMbW466x-11" value="empleado" style="whiteSpace=wrap;html=1;align=center;fillColor=#f0a30a;strokeColor=#BD7000;fontColor=#000000;" parent="1" vertex="1">
          <mxGeometry x="45" y="680" width="100" height="40" as="geometry" />
        </mxCell>
        <mxCell id="AQrhuAA2heNJIMbW466x-12" value="" style="endArrow=none;html=1;rounded=0;exitX=0.325;exitY=1.067;exitDx=0;exitDy=0;exitPerimeter=0;" parent="1" target="AQrhuAA2heNJIMbW466x-13" edge="1">
          <mxGeometry relative="1" as="geometry">
            <mxPoint x="55" y="719.9999999999999" as="sourcePoint" />
            <mxPoint x="90" y="762.32" as="targetPoint" />
          </mxGeometry>
        </mxCell>
        <mxCell id="AQrhuAA2heNJIMbW466x-13" value="&lt;u&gt;DNI&lt;/u&gt;" style="ellipse;whiteSpace=wrap;html=1;align=center;" parent="1" vertex="1">
          <mxGeometry x="25" y="747.32" width="50" height="30" as="geometry" />
        </mxCell>
        <mxCell id="AQrhuAA2heNJIMbW466x-14" value="" style="endArrow=none;html=1;rounded=0;exitX=0.75;exitY=1;exitDx=0;exitDy=0;" parent="1" source="AQrhuAA2heNJIMbW466x-11" target="AQrhuAA2heNJIMbW466x-15" edge="1">
          <mxGeometry relative="1" as="geometry">
            <mxPoint x="60" y="765" as="sourcePoint" />
            <mxPoint x="120" y="765" as="targetPoint" />
          </mxGeometry>
        </mxCell>
        <mxCell id="AQrhuAA2heNJIMbW466x-15" value="tlf" style="ellipse;whiteSpace=wrap;html=1;align=center;" parent="1" vertex="1">
          <mxGeometry x="85" y="740" width="50" height="30" as="geometry" />
        </mxCell>
        <mxCell id="AQrhuAA2heNJIMbW466x-16" value="trabaja" style="shape=rhombus;perimeter=rhombusPerimeter;whiteSpace=wrap;html=1;align=center;fillColor=#76608a;fontColor=#ffffff;strokeColor=#432D57;" parent="1" vertex="1">
          <mxGeometry x="55" y="580" width="90" height="40" as="geometry" />
        </mxCell>
        <mxCell id="AQrhuAA2heNJIMbW466x-17" value="" style="endArrow=none;html=1;rounded=0;exitX=0.5;exitY=0;exitDx=0;exitDy=0;entryX=0.5;entryY=1;entryDx=0;entryDy=0;" parent="1" source="AQrhuAA2heNJIMbW466x-16" target="AQrhuAA2heNJIMbW466x-3" edge="1">
          <mxGeometry relative="1" as="geometry">
            <mxPoint x="241" y="440" as="sourcePoint" />
            <mxPoint x="194" y="470" as="targetPoint" />
          </mxGeometry>
        </mxCell>
        <mxCell id="AQrhuAA2heNJIMbW466x-18" value="(1,1)" style="resizable=0;html=1;whiteSpace=wrap;align=right;verticalAlign=bottom;" parent="AQrhuAA2heNJIMbW466x-17" connectable="0" vertex="1">
          <mxGeometry x="1" relative="1" as="geometry">
            <mxPoint x="35" y="20" as="offset" />
          </mxGeometry>
        </mxCell>
        <mxCell id="AQrhuAA2heNJIMbW466x-19" value="" style="endArrow=none;html=1;rounded=0;exitX=0.5;exitY=1;exitDx=0;exitDy=0;entryX=0.5;entryY=0;entryDx=0;entryDy=0;" parent="1" source="AQrhuAA2heNJIMbW466x-16" target="AQrhuAA2heNJIMbW466x-11" edge="1">
          <mxGeometry relative="1" as="geometry">
            <mxPoint x="241" y="440" as="sourcePoint" />
            <mxPoint x="414" y="470" as="targetPoint" />
          </mxGeometry>
        </mxCell>
        <mxCell id="AQrhuAA2heNJIMbW466x-20" value="(1,N)" style="resizable=0;html=1;whiteSpace=wrap;align=right;verticalAlign=bottom;" parent="AQrhuAA2heNJIMbW466x-19" connectable="0" vertex="1">
          <mxGeometry x="1" relative="1" as="geometry">
            <mxPoint as="offset" />
          </mxGeometry>
        </mxCell>
        <mxCell id="AQrhuAA2heNJIMbW466x-21" value="revista" style="whiteSpace=wrap;html=1;align=center;fillColor=#f0a30a;strokeColor=#BD7000;fontColor=#000000;" parent="1" vertex="1">
          <mxGeometry x="435" y="460" width="100" height="40" as="geometry" />
        </mxCell>
        <mxCell id="AQrhuAA2heNJIMbW466x-23" value="" style="endArrow=none;html=1;rounded=0;exitX=0.5;exitY=0;exitDx=0;exitDy=0;" parent="1" source="AQrhuAA2heNJIMbW466x-21" target="AQrhuAA2heNJIMbW466x-24" edge="1">
          <mxGeometry relative="1" as="geometry">
            <mxPoint x="415" y="415" as="sourcePoint" />
            <mxPoint x="475" y="415" as="targetPoint" />
          </mxGeometry>
        </mxCell>
        <mxCell id="AQrhuAA2heNJIMbW466x-24" value="&lt;u&gt;num.reg.&lt;/u&gt;" style="ellipse;whiteSpace=wrap;html=1;align=center;" parent="1" vertex="1">
          <mxGeometry x="450" y="400" width="50" height="30" as="geometry" />
        </mxCell>
        <mxCell id="AQrhuAA2heNJIMbW466x-25" value="" style="endArrow=none;html=1;rounded=0;exitX=0.25;exitY=0;exitDx=0;exitDy=0;" parent="1" source="AQrhuAA2heNJIMbW466x-21" target="AQrhuAA2heNJIMbW466x-26" edge="1">
          <mxGeometry relative="1" as="geometry">
            <mxPoint x="355" y="415" as="sourcePoint" />
            <mxPoint x="415" y="415" as="targetPoint" />
          </mxGeometry>
        </mxCell>
        <mxCell id="AQrhuAA2heNJIMbW466x-26" value="titulo" style="ellipse;whiteSpace=wrap;html=1;align=center;" parent="1" vertex="1">
          <mxGeometry x="400" y="390" width="50" height="30" as="geometry" />
        </mxCell>
        <mxCell id="AQrhuAA2heNJIMbW466x-27" value="" style="endArrow=none;html=1;rounded=0;exitX=0.75;exitY=0;exitDx=0;exitDy=0;" parent="1" target="AQrhuAA2heNJIMbW466x-28" edge="1">
          <mxGeometry relative="1" as="geometry">
            <mxPoint x="505" y="460" as="sourcePoint" />
            <mxPoint x="551" y="415" as="targetPoint" />
          </mxGeometry>
        </mxCell>
        <mxCell id="AQrhuAA2heNJIMbW466x-28" value="periocidad" style="ellipse;whiteSpace=wrap;html=1;align=center;" parent="1" vertex="1">
          <mxGeometry x="513.5" y="390" width="71.5" height="30" as="geometry" />
        </mxCell>
        <mxCell id="AQrhuAA2heNJIMbW466x-29" value="" style="endArrow=none;html=1;rounded=0;exitX=0;exitY=0;exitDx=0;exitDy=0;" parent="1" source="AQrhuAA2heNJIMbW466x-21" edge="1">
          <mxGeometry relative="1" as="geometry">
            <mxPoint x="420" y="480" as="sourcePoint" />
            <mxPoint x="420.3433367801881" y="453.7185729057949" as="targetPoint" />
          </mxGeometry>
        </mxCell>
        <mxCell id="AQrhuAA2heNJIMbW466x-30" value="tipo" style="ellipse;whiteSpace=wrap;html=1;align=center;" parent="1" vertex="1">
          <mxGeometry x="370" y="430" width="50" height="30" as="geometry" />
        </mxCell>
        <mxCell id="AQrhuAA2heNJIMbW466x-36" value="publica" style="shape=rhombus;perimeter=rhombusPerimeter;whiteSpace=wrap;html=1;align=center;fillColor=#76608a;fontColor=#ffffff;strokeColor=#432D57;" parent="1" vertex="1">
          <mxGeometry x="225" y="460" width="90" height="40" as="geometry" />
        </mxCell>
        <mxCell id="AQrhuAA2heNJIMbW466x-37" value="" style="endArrow=none;html=1;rounded=0;exitX=0;exitY=0.5;exitDx=0;exitDy=0;entryX=1;entryY=0.5;entryDx=0;entryDy=0;" parent="1" source="AQrhuAA2heNJIMbW466x-36" target="AQrhuAA2heNJIMbW466x-3" edge="1">
          <mxGeometry relative="1" as="geometry">
            <mxPoint x="202" y="450" as="sourcePoint" />
            <mxPoint x="155" y="480" as="targetPoint" />
          </mxGeometry>
        </mxCell>
        <mxCell id="AQrhuAA2heNJIMbW466x-38" value="(1,1)" style="resizable=0;html=1;whiteSpace=wrap;align=right;verticalAlign=bottom;" parent="AQrhuAA2heNJIMbW466x-37" connectable="0" vertex="1">
          <mxGeometry x="1" relative="1" as="geometry">
            <mxPoint x="34" as="offset" />
          </mxGeometry>
        </mxCell>
        <mxCell id="AQrhuAA2heNJIMbW466x-39" value="" style="endArrow=none;html=1;rounded=0;exitX=1;exitY=0.5;exitDx=0;exitDy=0;" parent="1" edge="1">
          <mxGeometry relative="1" as="geometry">
            <mxPoint x="440" y="480" as="sourcePoint" />
            <mxPoint x="430" y="480" as="targetPoint" />
            <Array as="points">
              <mxPoint x="310" y="480" />
            </Array>
          </mxGeometry>
        </mxCell>
        <mxCell id="AQrhuAA2heNJIMbW466x-40" value="(1,N)" style="resizable=0;html=1;whiteSpace=wrap;align=right;verticalAlign=bottom;" parent="AQrhuAA2heNJIMbW466x-39" connectable="0" vertex="1">
          <mxGeometry x="1" relative="1" as="geometry">
            <mxPoint as="offset" />
          </mxGeometry>
        </mxCell>
        <mxCell id="AQrhuAA2heNJIMbW466x-41" value="periodista" style="whiteSpace=wrap;html=1;align=center;fillColor=#f0a30a;strokeColor=#BD7000;fontColor=#000000;" parent="1" vertex="1">
          <mxGeometry x="430" y="680.2072545053072" width="100" height="40" as="geometry" />
        </mxCell>
        <mxCell id="AQrhuAA2heNJIMbW466x-42" value="" style="endArrow=none;html=1;rounded=0;exitX=0.325;exitY=1.067;exitDx=0;exitDy=0;exitPerimeter=0;" parent="1" target="AQrhuAA2heNJIMbW466x-43" edge="1">
          <mxGeometry relative="1" as="geometry">
            <mxPoint x="440" y="720.2072545053071" as="sourcePoint" />
            <mxPoint x="475" y="762.5272545053073" as="targetPoint" />
          </mxGeometry>
        </mxCell>
        <mxCell id="AQrhuAA2heNJIMbW466x-43" value="&lt;u&gt;DNI&lt;/u&gt;" style="ellipse;whiteSpace=wrap;html=1;align=center;" parent="1" vertex="1">
          <mxGeometry x="410" y="747.5272545053073" width="50" height="30" as="geometry" />
        </mxCell>
        <mxCell id="AQrhuAA2heNJIMbW466x-44" value="" style="endArrow=none;html=1;rounded=0;exitX=0.75;exitY=1;exitDx=0;exitDy=0;" parent="1" source="AQrhuAA2heNJIMbW466x-41" target="AQrhuAA2heNJIMbW466x-45" edge="1">
          <mxGeometry relative="1" as="geometry">
            <mxPoint x="445" y="765.2072545053072" as="sourcePoint" />
            <mxPoint x="505" y="765.2072545053072" as="targetPoint" />
          </mxGeometry>
        </mxCell>
        <mxCell id="AQrhuAA2heNJIMbW466x-45" value="tlf" style="ellipse;whiteSpace=wrap;html=1;align=center;" parent="1" vertex="1">
          <mxGeometry x="470" y="740.2072545053072" width="50" height="30" as="geometry" />
        </mxCell>
        <mxCell id="AQrhuAA2heNJIMbW466x-46" value="" style="resizable=0;html=1;whiteSpace=wrap;align=right;verticalAlign=bottom;" parent="1" connectable="0" vertex="1">
          <mxGeometry x="480.0172712087758" y="680" as="geometry" />
        </mxCell>
        <mxCell id="AQrhuAA2heNJIMbW466x-47" value="" style="endArrow=none;html=1;rounded=0;exitX=1;exitY=1;exitDx=0;exitDy=0;" parent="1" source="AQrhuAA2heNJIMbW466x-41" target="AQrhuAA2heNJIMbW466x-48" edge="1">
          <mxGeometry relative="1" as="geometry">
            <mxPoint x="520" y="750.0072545053072" as="sourcePoint" />
            <mxPoint x="580" y="755" as="targetPoint" />
          </mxGeometry>
        </mxCell>
        <mxCell id="AQrhuAA2heNJIMbW466x-48" value="especialidad" style="ellipse;whiteSpace=wrap;html=1;align=center;" parent="1" vertex="1">
          <mxGeometry x="555" y="740" width="85" height="30" as="geometry" />
        </mxCell>
        <mxCell id="AQrhuAA2heNJIMbW466x-49" value="escribe" style="shape=rhombus;perimeter=rhombusPerimeter;whiteSpace=wrap;html=1;align=center;fillColor=#76608a;fontColor=#ffffff;strokeColor=#432D57;" parent="1" vertex="1">
          <mxGeometry x="435" y="590" width="90" height="40" as="geometry" />
        </mxCell>
        <mxCell id="AQrhuAA2heNJIMbW466x-50" value="" style="endArrow=none;html=1;rounded=0;exitX=0.5;exitY=0;exitDx=0;exitDy=0;entryX=0.45;entryY=0.963;entryDx=0;entryDy=0;entryPerimeter=0;" parent="1" source="AQrhuAA2heNJIMbW466x-49" target="AQrhuAA2heNJIMbW466x-21" edge="1">
          <mxGeometry relative="1" as="geometry">
            <mxPoint x="412" y="580" as="sourcePoint" />
            <mxPoint x="365" y="610" as="targetPoint" />
          </mxGeometry>
        </mxCell>
        <mxCell id="AQrhuAA2heNJIMbW466x-51" value="(1,N)" style="resizable=0;html=1;whiteSpace=wrap;align=right;verticalAlign=bottom;" parent="AQrhuAA2heNJIMbW466x-50" connectable="0" vertex="1">
          <mxGeometry x="1" relative="1" as="geometry">
            <mxPoint x="34" y="22" as="offset" />
          </mxGeometry>
        </mxCell>
        <mxCell id="AQrhuAA2heNJIMbW466x-52" value="" style="endArrow=none;html=1;rounded=0;exitX=0.5;exitY=1;exitDx=0;exitDy=0;" parent="1" source="AQrhuAA2heNJIMbW466x-49" edge="1">
          <mxGeometry relative="1" as="geometry">
            <mxPoint x="412" y="580" as="sourcePoint" />
            <mxPoint x="480" y="680" as="targetPoint" />
          </mxGeometry>
        </mxCell>
        <mxCell id="AQrhuAA2heNJIMbW466x-53" value="(1,N)" style="resizable=0;html=1;whiteSpace=wrap;align=right;verticalAlign=bottom;" parent="AQrhuAA2heNJIMbW466x-52" connectable="0" vertex="1">
          <mxGeometry x="1" relative="1" as="geometry">
            <mxPoint as="offset" />
          </mxGeometry>
        </mxCell>
        <mxCell id="th9i2mZ-5sngt2D5egi3-3" value="incluye" style="shape=rhombus;perimeter=rhombusPerimeter;whiteSpace=wrap;html=1;align=center;fillColor=#76608a;fontColor=#ffffff;strokeColor=#432D57;" vertex="1" parent="1">
          <mxGeometry x="585" y="460" width="90" height="40" as="geometry" />
        </mxCell>
        <mxCell id="th9i2mZ-5sngt2D5egi3-4" value="" style="endArrow=none;html=1;rounded=0;exitX=0;exitY=0.5;exitDx=0;exitDy=0;entryX=1;entryY=0.5;entryDx=0;entryDy=0;" edge="1" source="th9i2mZ-5sngt2D5egi3-3" parent="1" target="AQrhuAA2heNJIMbW466x-21">
          <mxGeometry relative="1" as="geometry">
            <mxPoint x="397" y="550" as="sourcePoint" />
            <mxPoint x="350" y="580" as="targetPoint" />
          </mxGeometry>
        </mxCell>
        <mxCell id="th9i2mZ-5sngt2D5egi3-5" value="(1,1)" style="resizable=0;html=1;whiteSpace=wrap;align=right;verticalAlign=bottom;" connectable="0" vertex="1" parent="th9i2mZ-5sngt2D5egi3-4">
          <mxGeometry x="1" relative="1" as="geometry">
            <mxPoint x="34" as="offset" />
          </mxGeometry>
        </mxCell>
        <mxCell id="th9i2mZ-5sngt2D5egi3-6" value="" style="endArrow=none;html=1;rounded=0;exitX=1;exitY=0.5;exitDx=0;exitDy=0;entryX=0;entryY=0.5;entryDx=0;entryDy=0;" edge="1" source="th9i2mZ-5sngt2D5egi3-3" parent="1">
          <mxGeometry relative="1" as="geometry">
            <mxPoint x="397" y="550" as="sourcePoint" />
            <mxPoint x="720" y="480" as="targetPoint" />
          </mxGeometry>
        </mxCell>
        <mxCell id="th9i2mZ-5sngt2D5egi3-7" value="(1,N)" style="resizable=0;html=1;whiteSpace=wrap;align=right;verticalAlign=bottom;" connectable="0" vertex="1" parent="th9i2mZ-5sngt2D5egi3-6">
          <mxGeometry x="1" relative="1" as="geometry">
            <mxPoint as="offset" />
          </mxGeometry>
        </mxCell>
        <mxCell id="th9i2mZ-5sngt2D5egi3-13" value="" style="endArrow=none;html=1;rounded=0;exitX=0;exitY=0;exitDx=0;exitDy=0;" edge="1" target="th9i2mZ-5sngt2D5egi3-14" parent="1">
          <mxGeometry relative="1" as="geometry">
            <mxPoint x="720" y="460" as="sourcePoint" />
            <mxPoint x="540" y="585" as="targetPoint" />
          </mxGeometry>
        </mxCell>
        <mxCell id="th9i2mZ-5sngt2D5egi3-14" value="&lt;u&gt;numero&lt;/u&gt;" style="ellipse;whiteSpace=wrap;html=1;align=center;" vertex="1" parent="1">
          <mxGeometry x="650" y="400" width="50" height="30" as="geometry" />
        </mxCell>
        <mxCell id="th9i2mZ-5sngt2D5egi3-15" value="" style="endArrow=none;html=1;rounded=0;exitX=0.25;exitY=0;exitDx=0;exitDy=0;" edge="1" target="th9i2mZ-5sngt2D5egi3-16" parent="1">
          <mxGeometry relative="1" as="geometry">
            <mxPoint x="745" y="460" as="sourcePoint" />
            <mxPoint x="802" y="405" as="targetPoint" />
          </mxGeometry>
        </mxCell>
        <mxCell id="th9i2mZ-5sngt2D5egi3-16" value="ejemplares" style="ellipse;whiteSpace=wrap;html=1;align=center;" vertex="1" parent="1">
          <mxGeometry x="700" y="390" width="60" height="30" as="geometry" />
        </mxCell>
        <mxCell id="th9i2mZ-5sngt2D5egi3-18" value="fecha" style="ellipse;whiteSpace=wrap;html=1;align=center;" vertex="1" parent="1">
          <mxGeometry x="760" y="390" width="50" height="30" as="geometry" />
        </mxCell>
        <mxCell id="th9i2mZ-5sngt2D5egi3-19" value="" style="endArrow=none;html=1;rounded=0;exitX=0.5;exitY=0;exitDx=0;exitDy=0;entryX=0.5;entryY=1;entryDx=0;entryDy=0;" edge="1" parent="1" target="th9i2mZ-5sngt2D5egi3-18">
          <mxGeometry relative="1" as="geometry">
            <mxPoint x="770" y="460" as="sourcePoint" />
            <mxPoint x="730" y="420" as="targetPoint" />
          </mxGeometry>
        </mxCell>
        <mxCell id="th9i2mZ-5sngt2D5egi3-20" value="" style="endArrow=none;html=1;rounded=0;exitX=0.25;exitY=1;exitDx=0;exitDy=0;" edge="1" target="th9i2mZ-5sngt2D5egi3-21" parent="1">
          <mxGeometry relative="1" as="geometry">
            <mxPoint x="745" y="500" as="sourcePoint" />
            <mxPoint x="760" y="525" as="targetPoint" />
          </mxGeometry>
        </mxCell>
        <mxCell id="th9i2mZ-5sngt2D5egi3-21" value="paginas" style="ellipse;whiteSpace=wrap;html=1;align=center;" vertex="1" parent="1">
          <mxGeometry x="735" y="510" width="50" height="30" as="geometry" />
        </mxCell>
        <mxCell id="th9i2mZ-5sngt2D5egi3-23" value="NumeroRevista" style="shape=ext;margin=3;double=1;whiteSpace=wrap;html=1;align=center;fillColor=#f0a30a;fontColor=#000000;strokeColor=#BD7000;" vertex="1" parent="1">
          <mxGeometry x="720" y="460" width="100" height="40" as="geometry" />
        </mxCell>
      </root>
    </mxGraphModel>
  </diagram>
</mxfile>
